<?xml version="1.0" encoding="UTF-8"?>
<!DOCTYPE svg PUBLIC "-//W3C//DTD SVG 1.1//EN" "http://www.w3.org/Graphics/SVG/1.1/DTD/svg11.dtd">
<svg version="1.1" id="Layer_1" xmlns="http://www.w3.org/2000/svg" xmlns:xlink="http://www.w3.org/1999/xlink" x="0px" y="0px" width="24px" height="24px" viewBox="0 0 24 24" enable-background="new 0 0 24 24" xml:space="preserve">
  <g id="main">
    <g id="icon">
      <path d="M4.994,3.076L4.29,3.295L3.653,3.64L3.098,4.098L2.64,4.653L2.295,5.29L2.076,5.994L2,6.75L2,18.25L2.076,19.01L2.295,19.71L2.64,20.35L3.098,20.9L3.653,21.36L4.29,21.71L4.994,21.92L5.75,22L15.4,22L15.38,21.95L15.29,21.42L13.5,21.42L13.09,21.37L12.73,21.2L12.37,20.87L12.17,20.5L5.75,20.5L5.296,20.45L4.874,20.32L4.492,20.12L4.159,19.84L3.884,19.51L3.677,19.13L3.546,18.7L3.5,18.25L3.5,9L20.5,9L20.5,11.07L20.91,11.28L21.67,11.9L22,12.3L22,6.75L21.92,5.994L21.71,5.29L21.36,4.653L20.9,4.098L20.35,3.64L19.71,3.295L19.01,3.076L18.25,3L5.75,3zM18.25,4.5L18.7,4.546L19.13,4.677L19.51,4.884L19.84,5.159L20.12,5.492L20.32,5.874L20.45,6.296L20.5,6.75L20.5,7.5L3.5,7.5L3.5,6.75L3.546,6.296L3.677,5.874L3.884,5.492L4.159,5.159L4.492,4.884L4.874,4.677L5.296,4.546L5.75,4.5zz" fill="#2E3192"/>
      <path d="M6.958,1.559L6.72,1.72L6.559,1.958L6.5,2.25L6.5,5.25L6.559,5.542L6.72,5.78L6.958,5.941L7.25,6L7.542,5.941L7.78,5.78L7.941,5.542L8,5.25L8,2.25L7.941,1.958L7.78,1.72L7.542,1.559L7.25,1.5zM16.46,1.559L16.22,1.72L16.06,1.958L16,2.25L16,5.25L16.06,5.542L16.22,5.78L16.46,5.941L16.75,6L17.04,5.941L17.28,5.78L17.44,5.542L17.5,5.25L17.5,2.25L17.44,1.958L17.28,1.72L17.04,1.559L16.75,1.5zz" fill="#2E3192"/>
    </g>
    <g id="overlay">
      <path d="M22.9704,19.8554l-0.7976,-2.1993v-2.1893c0,-2.4041,-2.1931,-4.3252,-4.6613,-4.0135c-2.0291,0.2563,-3.6101,2.0274,-3.6101,4.0747v2.1281l-0.7975,2.1993c-0.0718,0.1795,-0.0116,0.3919,0.1668,0.5062c0.0665,0.0426,0.146,0.0604,0.2249,0.0604h2.7812h0.8188h1.8832h0.8188h2.7814c0.079,0,0.1585,-0.0178,0.225,-0.0605C22.9821,20.247,23.0422,20.0347,22.9704,19.8554z" fill="#FFCE55"/>
      <path d="M16.2767,21.1665v0.0414c0,1.0426,0.8791,1.8801,1.9223,1.7847c0.9142,-0.0836,1.5985,-0.8891,1.5985,-1.8163v-0.0097h-0.8188H16.2767z" fill="#FFCE55"/>
    </g>
  </g>
</svg>
